<svg id="svg" version="1.1" xmlns="http://www.w3.org/2000/svg" xmlns:xlink="http://www.w3.org/1999/xlink" width="400" height="400" viewBox="0, 0, 400,400"><g id="svgg"><path id="path0" d="M197.257 75.279 C 193.031 76.655,193.439 75.796,184.110 102.962 C 177.005 123.651,174.887 129.795,168.469 148.346 L 166.100 155.192 125.900 155.246 L 85.700 155.300 84.579 155.754 C 80.230 157.513,78.098 161.849,79.444 166.200 C 80.146 168.470,79.112 167.594,112.689 194.360 C 130.174 208.297,144.649 219.837,144.856 220.005 C 145.274 220.344,146.534 216.012,128.896 274.900 L 122.366 296.700 122.444 298.500 C 122.643 303.096,126.079 306.300,130.808 306.300 C 133.625 306.300,131.169 307.864,160.800 287.199 C 199.385 260.289,199.662 260.097,199.792 260.135 C 199.858 260.155,214.892 270.361,233.202 282.817 C 251.511 295.272,266.898 305.651,267.396 305.881 C 270.383 307.264,275.197 305.812,277.180 302.929 C 279.332 299.801,279.283 298.404,276.731 290.200 C 275.653 286.735,273.556 279.985,272.072 275.200 C 270.587 270.415,266.130 256.117,262.167 243.426 C 256.186 224.272,255.008 220.310,255.231 220.101 C 255.379 219.963,269.630 208.622,286.900 194.900 C 304.170 181.178,318.527 169.759,318.803 169.525 C 322.898 166.065,321.741 158.666,316.718 156.194 C 314.667 155.185,315.430 155.202,273.470 155.201 L 233.839 155.200 233.645 154.650 C 233.539 154.347,227.670 137.675,220.605 117.600 C 213.539 97.525,207.482 80.515,207.145 79.800 C 205.419 76.141,200.924 74.085,197.257 75.279 " stroke="none" fill="#fcfbfb" fill-rule="evenodd"></path><path id="path1" d="M189.100 10.222 C 98.780 15.916,25.253 82.922,12.217 171.416 C 9.070 192.777,9.216 210.863,12.705 232.000 C 26.638 316.401,97.625 382.043,182.800 389.289 C 264.857 396.271,340.600 351.499,373.942 276.306 C 407.029 201.688,388.020 113.348,327.154 58.863 C 289.444 25.106,238.381 7.115,189.100 10.222 M203.097 75.569 C 206.633 77.224,206.187 76.224,216.618 105.900 C 221.374 119.430,227.215 136.035,229.599 142.800 L 233.933 155.100 274.517 155.200 C 312.375 155.293,315.158 155.323,315.963 155.646 C 321.349 157.803,323.219 164.991,319.435 168.994 C 318.921 169.538,304.325 181.239,287.000 194.996 C 269.675 208.753,255.420 220.127,255.323 220.271 C 255.206 220.442,258.074 229.914,263.662 247.816 C 279.701 299.193,279.065 297.027,278.767 299.239 C 278.070 304.431,272.295 307.920,267.504 306.045 C 267.062 305.872,254.190 297.224,238.900 286.827 C 223.610 276.430,208.546 266.187,205.425 264.066 C 202.304 261.944,199.682 260.250,199.598 260.301 C 199.515 260.353,184.836 270.580,166.979 283.028 C 149.121 295.477,134.134 305.828,133.674 306.032 C 128.402 308.364,121.756 303.414,122.253 297.527 C 122.320 296.724,125.502 285.795,131.459 265.900 C 146.420 215.937,145.113 220.426,144.788 220.117 C 144.629 219.967,130.235 208.485,112.800 194.601 C 95.365 180.716,80.936 169.164,80.736 168.928 C 77.644 165.291,78.849 158.798,83.075 156.326 C 85.127 155.126,82.305 155.200,126.036 155.200 C 148.016 155.200,166.000 155.168,166.000 155.129 C 166.000 155.090,167.762 149.982,169.916 143.779 C 173.543 133.330,184.180 102.434,189.532 86.800 C 190.793 83.115,192.061 79.696,192.349 79.203 C 194.611 75.325,199.235 73.762,203.097 75.569 " stroke="none" fill="#fc6cb4" fill-rule="evenodd"></path><path id="path2" d="" stroke="none" fill="#fca3d1" fill-rule="evenodd"></path><path id="path3" d="" stroke="none" fill="#fc88c4" fill-rule="evenodd"></path><path id="path4" d="M199.352 74.941 C 199.601 74.989,199.961 74.987,200.152 74.937 C 200.344 74.887,200.140 74.848,199.700 74.850 C 199.260 74.853,199.104 74.894,199.352 74.941 M318.800 157.700 C 319.173 158.085,319.523 158.400,319.578 158.400 C 319.633 158.400,319.373 158.085,319.000 157.700 C 318.627 157.315,318.277 157.000,318.222 157.000 C 318.167 157.000,318.427 157.315,318.800 157.700 M122.254 298.000 C 122.254 298.495,122.293 298.697,122.341 298.450 C 122.389 298.203,122.389 297.798,122.341 297.550 C 122.293 297.303,122.254 297.505,122.254 298.000 " stroke="none" fill="#fcbddc" fill-rule="evenodd"></path></g></svg>